<svg xmlns="http://www.w3.org/2000/svg" width="1120" height="520" viewBox="0 0 1120 520" role="img" aria-labelledby="title desc"><title id="title">Current focus</title><desc id="desc">Signal Current composition.</desc><rect width="1120" height="520" fill="#F4F1E8"/><path d="M28 1 H1092" stroke="#CDD2D8"/><path d="M28 1 V92" stroke="#CDD2D8" stroke-width="2"/><circle cx="28" cy="32" r="6" fill="#006BDD"/><path d="M28 32 H58" stroke="#006BDD" stroke-width="2"/><text x="72" y="33" fill="#168CFF" font-family="SFMono-Regular,Consolas,monospace" font-size="10" font-weight="700" letter-spacing="1.2">01</text><text x="72" y="78" fill="#0B0E14" font-family="Inter,Segoe UI,Arial,sans-serif" font-size="30" font-weight="780" >CURRENT</text><text x="1078" y="76" fill="#586170" font-family="SFMono-Regular,Consolas,monospace" font-size="10" font-weight="650" text-anchor="end" letter-spacing="1">BUILDING · LEARNING · REFINING</text><rect x="72" y="116" width="470" height="176" fill="#FFFFFF" stroke="#CDD2D8"/><rect x="72" y="116" width="5" height="176" fill="#9A6C17"/><circle cx="94" cy="138" r="5" fill="#9A6C17"/><path d="M94 138 H120" stroke="#9A6C17" stroke-width="1.5"/><text x="130" y="141" fill="#B9821E" font-family="SFMono-Regular,Consolas,monospace" font-size="9.5" font-weight="700" letter-spacing=".8">01</text><text x="94" y="178" fill="#0B0E14" font-family="Inter,Segoe UI,Arial,sans-serif" font-size="18.5" font-weight="740" >FRONTEND &amp; INTERACTION</text><text x="94" y="209" fill="#343C47" font-family="Inter,Segoe UI,Arial,sans-serif" font-size="13.5" font-weight="500" >React · TypeScript · Three.js · WebGL</text><text x="94" y="270" fill="#586170" font-family="SFMono-Regular,Consolas,monospace" font-size="9.3" font-weight="650" letter-spacing=".55">REFINING · WEB PRODUCTS &amp; UX</text><circle cx="522" cy="136" r="3" fill="#006BDD"/><path d="M462 136 H512" stroke="#DDE0E3"/><rect x="578" y="116" width="470" height="176" fill="#FFFFFF" stroke="#CDD2D8"/><rect x="578" y="116" width="5" height="176" fill="#006BDD"/><circle cx="600" cy="138" r="5" fill="#006BDD"/><path d="M600 138 H626" stroke="#006BDD" stroke-width="1.5"/><text x="636" y="141" fill="#168CFF" font-family="SFMono-Regular,Consolas,monospace" font-size="9.5" font-weight="700" letter-spacing=".8">02</text><text x="600" y="178" fill="#0B0E14" font-family="Inter,Segoe UI,Arial,sans-serif" font-size="18.5" font-weight="740" >BACKEND &amp; DATA</text><text x="600" y="209" fill="#343C47" font-family="Inter,Segoe UI,Arial,sans-serif" font-size="13.5" font-weight="500" >Node · Express · FastAPI · PostgreSQL</text><text x="600" y="270" fill="#586170" font-family="SFMono-Regular,Consolas,monospace" font-size="9.3" font-weight="650" letter-spacing=".55">DEEPENING · ARCHITECTURE &amp; APIS</text><circle cx="1028" cy="136" r="3" fill="#9A6C17"/><path d="M968 136 H1018" stroke="#DDE0E3"/><rect x="72" y="314" width="470" height="176" fill="#FFFFFF" stroke="#CDD2D8"/><rect x="72" y="314" width="5" height="176" fill="#9A6C17"/><circle cx="94" cy="336" r="5" fill="#9A6C17"/><path d="M94 336 H120" stroke="#9A6C17" stroke-width="1.5"/><text x="130" y="339" fill="#B9821E" font-family="SFMono-Regular,Consolas,monospace" font-size="9.5" font-weight="700" letter-spacing=".8">03</text><text x="94" y="376" fill="#0B0E14" font-family="Inter,Segoe UI,Arial,sans-serif" font-size="18.5" font-weight="740" >ENGINEERING &amp; DELIVERY</text><text x="94" y="407" fill="#343C47" font-family="Inter,Segoe UI,Arial,sans-serif" font-size="13.5" font-weight="500" >Tests · CI · Docker · Linux · Security</text><text x="94" y="468" fill="#586170" font-family="SFMono-Regular,Consolas,monospace" font-size="9.3" font-weight="650" letter-spacing=".55">IMPROVING · RELIABILITY &amp; PRODUCTION</text><circle cx="522" cy="334" r="3" fill="#006BDD"/><path d="M462 334 H512" stroke="#DDE0E3"/><rect x="578" y="314" width="470" height="176" fill="#FFFFFF" stroke="#CDD2D8"/><rect x="578" y="314" width="5" height="176" fill="#006BDD"/><circle cx="600" cy="336" r="5" fill="#006BDD"/><path d="M600 336 H626" stroke="#006BDD" stroke-width="1.5"/><text x="636" y="339" fill="#168CFF" font-family="SFMono-Regular,Consolas,monospace" font-size="9.5" font-weight="700" letter-spacing=".8">04</text><text x="600" y="376" fill="#0B0E14" font-family="Inter,Segoe UI,Arial,sans-serif" font-size="18.5" font-weight="740" >REALTIME &amp; EXPLORATION</text><text x="600" y="407" fill="#343C47" font-family="Inter,Segoe UI,Arial,sans-serif" font-size="13.5" font-weight="500" >WebSocket · Nakama · Local AI · Automation</text><text x="600" y="468" fill="#586170" font-family="SFMono-Regular,Consolas,monospace" font-size="9.3" font-weight="650" letter-spacing=".55">EXPLORING · REALTIME &amp; ROBOTICS</text><circle cx="1028" cy="334" r="3" fill="#9A6C17"/><path d="M968 334 H1018" stroke="#DDE0E3"/></svg>