<svg xmlns="http://www.w3.org/2000/svg" width="1120" height="260" viewBox="0 0 1120 260" role="img" aria-labelledby="title desc"><title id="title">Contact and footer</title><desc id="desc">Refined Signal footer.</desc><rect width="1120" height="260" fill="#F4F1E8"/><path d="M36 0 V260" stroke="#CDD2D8" stroke-width="2"/><circle cx="36" cy="40" r="6" fill="#9A6C17"/><path d="M36 40 H68" stroke="#9A6C17" stroke-width="2"/><text x="80" y="42" fill="#B9821E" font-family="SFMono-Regular,Consolas,monospace" font-size="10" font-weight="700" letter-spacing="1">90</text><text x="80" y="84" fill="#0B0E14" font-family="Inter,Segoe UI,Arial,sans-serif" font-size="32" font-weight="790" >CONTACT</text><text x="1078" y="82" fill="#586170" font-family="SFMono-Regular,Consolas,monospace" font-size="10.5" font-weight="650" text-anchor="end" letter-spacing=".9">END / CONTINUE</text><path d="M36 104 H1080" stroke="#DDE0E3"/><circle cx="420" cy="104" r="4" fill="#9A6C17"/><circle cx="788" cy="104" r="4" fill="#006BDD"/><rect x="72" y="126" width="650" height="98" fill="#FFFFFF" stroke="#CDD2D8"/><path d="M92 126 V224" stroke="#CDD2D8" stroke-width="1.5"/><circle cx="92" cy="154" r="6" fill="#9A6C17"/><path d="M92 154 H120" stroke="#9A6C17" stroke-width="2"/><text x="130" y="160" fill="#0B0E14" font-family="Inter,Segoe UI,Arial,sans-serif" font-size="24" font-weight="770" >FROM IDEA TO RUNNING SYSTEM.</text><text x="130" y="194" fill="#586170" font-family="SFMono-Regular,Consolas,monospace" font-size="10.2" font-weight="650" letter-spacing=".8">STILL LEARNING · STILL BUILDING</text><rect x="748" y="126" width="300" height="98" fill="#FFFFFF" stroke="#CDD2D8"/><path d="M768 126 V224" stroke="#CDD2D8" stroke-width="1.5"/><circle cx="768" cy="154" r="6" fill="#006BDD"/><path d="M768 154 H796" stroke="#006BDD" stroke-width="2"/><text x="806" y="156" fill="#168CFF" font-family="SFMono-Regular,Consolas,monospace" font-size="9.8" font-weight="700" letter-spacing=".7">91 · LINKS</text><text x="806" y="191" fill="#343C47" font-family="Inter,Segoe UI,Arial,sans-serif" font-size="13.5" font-weight="550" >Portfolio · LinkedIn · Email</text></svg>