<svg xmlns="http://www.w3.org/2000/svg" width="640" height="458" viewBox="0 0 640 458" role="img" aria-labelledby="title desc"><title id="title">Adrian Guichard Signal profile mobile</title><desc id="desc">Mobile Signal hero with full content parity.</desc><rect width="640" height="458" fill="#F4F1E8"/><path d="M30 0 V458" stroke="#CDD2D8" stroke-width="2"/><circle cx="30" cy="38" r="6" fill="#9A6C17"/><path d="M30 38 H58" stroke="#9A6C17" stroke-width="2"/><text x="70" y="40" fill="#B9821E" font-family="SFMono-Regular,Consolas,monospace" font-size="10.5" font-weight="700" letter-spacing=".8">00 · PROFILE / IDENTITY</text><text x="70" y="86" fill="#0B0E14" font-family="Inter,Segoe UI,Arial,sans-serif" font-size="37" font-weight="800" >ADRIAN</text><text x="70" y="124" fill="#0B0E14" font-family="Inter,Segoe UI,Arial,sans-serif" font-size="37" font-weight="800" >GUICHARD</text><text x="70" y="152" fill="#586170" font-family="SFMono-Regular,Consolas,monospace" font-size="12" font-weight="650" letter-spacing=".8">FULL-STACK JS / TS</text><rect x="70" y="176" width="516" height="94" fill="#FFFFFF" stroke="#CDD2D8"/><path d="M90 176 V270" stroke="#CDD2D8" stroke-width="1.5"/><circle cx="90" cy="202" r="6" fill="#006BDD"/><path d="M90 202 H116" stroke="#006BDD" stroke-width="2"/><text x="126" y="205" fill="#168CFF" font-family="SFMono-Regular,Consolas,monospace" font-size="10.5" font-weight="700" letter-spacing=".6">01 · BUILD</text><text x="126" y="236" fill="#0B0E14" font-family="Inter,Segoe UI,Arial,sans-serif" font-size="18.5" font-weight="745" >I build web products and</text><text x="126" y="260" fill="#0B0E14" font-family="Inter,Segoe UI,Arial,sans-serif" font-size="18.5" font-weight="745" >interactive systems.</text><rect x="70" y="282" width="516" height="64" fill="#FFFFFF" stroke="#CDD2D8"/><path d="M90 282 V346" stroke="#CDD2D8" stroke-width="1.5"/><circle cx="90" cy="306" r="5" fill="#9A6C17"/><path d="M90 306 H116" stroke="#9A6C17" stroke-width="1.5"/><text x="126" y="309" fill="#B9821E" font-family="SFMono-Regular,Consolas,monospace" font-size="10.5" font-weight="700" letter-spacing=".6">02 · PRACTICE</text><text x="250" y="326" fill="#168CFF" font-family="Inter,Segoe UI,Arial,sans-serif" font-size="15.5" font-weight="760" >FROM IDEA TO RUNNING SYSTEM.</text><rect x="70" y="358" width="516" height="82" fill="#ECE9E0" stroke="#DDE0E3"/><circle cx="90" cy="382" r="4" fill="#9A6C17"/><text x="108" y="386" fill="#343C47" font-family="Inter,Segoe UI,Arial,sans-serif" font-size="13.2" font-weight="550" >Frontend · Backend · Realtime · Tooling · 3D</text><circle cx="90" cy="414" r="4" fill="#006BDD"/><text x="108" y="418" fill="#343C47" font-family="Inter,Segoe UI,Arial,sans-serif" font-size="12.8" font-weight="550" >Montpellier · France</text><path d="M500 430 L514 392 L528 430 M507 414 H538 M538 392 A23 23 0 1 0 544 426" fill="none" stroke="#9A6C17" stroke-width="2.4"/><circle cx="560" cy="400" r="4" fill="#006BDD"/></svg>