<svg xmlns="http://www.w3.org/2000/svg" width="640" height="710" viewBox="0 0 640 710" role="img" aria-labelledby="title desc"><title id="title">Toolkit mobile</title><desc id="desc">Mobile technology toolkit.</desc><rect width="640" height="710" fill="#06080D"/><path d="M30 0 V710" stroke="#273240" stroke-width="2"/><circle cx="30" cy="39" r="6" fill="#D9AE57"/><path d="M30 39 H54" stroke="#D9AE57" stroke-width="2"/><rect x="54" y="12" width="184" height="54" rx="10" fill="#111923" stroke="#2A3948"/><text x="74" y="46" fill="#D9AE57" font-family="Inter,Segoe UI,Arial,sans-serif" font-size="17" font-weight="790">TOOLKIT</text><rect x="54" y="84" width="532" height="610" rx="14" fill="#0B1118" stroke="#2A3948"/><rect x="74" y="104" width="492" height="106" rx="10" fill="#111923" stroke="#2A3948"/><text x="94" y="136" fill="#D9AE57" font-family="Inter,Segoe UI,Arial,sans-serif" font-size="15.5" font-weight="745">FRONTEND</text><text x="94" y="170" fill="#D2D8DF" font-family="Inter,Segoe UI,Arial,sans-serif" font-size="12.8">TypeScript · JavaScript · React · Vite · Three.js · WebGL</text><rect x="74" y="222" width="492" height="106" rx="10" fill="#111923" stroke="#2A3948"/><text x="94" y="254" fill="#D9AE57" font-family="Inter,Segoe UI,Arial,sans-serif" font-size="15.5" font-weight="745">BACKEND &amp; REALTIME</text><text x="94" y="288" fill="#D2D8DF" font-family="Inter,Segoe UI,Arial,sans-serif" font-size="12.8">Node.js · Express · FastAPI · REST · WebSocket · Nakama</text><rect x="74" y="340" width="492" height="92" rx="10" fill="#111923" stroke="#2A3948"/><text x="94" y="372" fill="#D9AE57" font-family="Inter,Segoe UI,Arial,sans-serif" font-size="15.5" font-weight="745">DATA</text><text x="94" y="406" fill="#D2D8DF" font-family="Inter,Segoe UI,Arial,sans-serif" font-size="12.8">PostgreSQL · MongoDB</text><rect x="74" y="444" width="492" height="106" rx="10" fill="#111923" stroke="#2A3948"/><text x="94" y="476" fill="#D9AE57" font-family="Inter,Segoe UI,Arial,sans-serif" font-size="15.5" font-weight="745">QUALITY &amp; DELIVERY</text><text x="94" y="510" fill="#D2D8DF" font-family="Inter,Segoe UI,Arial,sans-serif" font-size="12.8">Playwright · Vitest / Jest · GitHub Actions · Docker · pnpm</text><rect x="74" y="562" width="492" height="126" rx="10" fill="#111923" stroke="#2A3948"/><text x="94" y="594" fill="#168CFF" font-family="Inter,Segoe UI,Arial,sans-serif" font-size="15.5" font-weight="745">AI &amp; LOCAL TOOLING</text><text x="94" y="628" fill="#D2D8DF" font-family="Inter,Segoe UI,Arial,sans-serif" font-size="12.8">Python · PyTorch · Diffusers · local models · CLI workflows</text></svg>